<?xml version="1.0" encoding="UTF-8"?><svg width="250.825mm" height="128.058mm" viewBox="0 0 948 484" xmlns="http://www.w3.org/2000/svg" xmlns:xlink="http://www.w3.org/1999/xlink"><g fill="none" stroke="black" stroke-width="1" fill-rule="evenodd" stroke-linecap="square" stroke-linejoin="bevel"><g clip-path="none" fill="#ffffff" fill-opacity="1" opacity="1" stroke="none" stroke-opacity="0" transform="matrix(1,0,0,1,0,0)"><path d="M0,0 L948,0 L948,484 L0,484 L0,0 z" fill-rule="evenodd" vector-effect="none"/></g><defs><clipPath id="clip3"><path d="M-287,-2 L661,-2 L661,482 L-287,482 L-287,-2 z"/></clipPath></defs><g clip-path="url(#clip3)" fill="#ffffff" fill-opacity="1" opacity="1" stroke="none" stroke-opacity="0" transform="matrix(1,0,0,1,287,2)"><path d="M0,0 L490,0 L490,72 L0,72 L0,0 z" fill-rule="evenodd" vector-effect="none"/></g><defs><clipPath id="clip8"><path d="M0,0 L490,0 L490,72 L0,72 L0,0 z"/></clipPath></defs><g clip-path="url(#clip8)" fill="#ffffff" fill-opacity="1" opacity="1" stroke="#000000" stroke-linecap="square" stroke-linejoin="bevel" stroke-opacity="1" stroke-width="1" transform="matrix(1,0,0,1,287,2)"><text fill="#000000" fill-opacity="1" font-family="Arial Black" font-size="28" font-style="italic" font-weight="400" stroke="none" textLength="409.734" x="1" xml:space="preserve" y="32">  Robotic-Fish NGC System</text></g><defs><clipPath id="clip19"><path d="M-432,-119 L516,-119 L516,365 L-432,365 L-432,-119 z"/></clipPath></defs><g clip-path="url(#clip19)" fill="#00ffd9" fill-opacity="1" opacity="1" stroke="none" stroke-opacity="0" transform="matrix(1,0,0,1,432,119)"><path d="M0,0 L200,0 L200,146 L0,146 L0,0 z" fill-rule="evenodd" vector-effect="none"/></g><defs><clipPath id="clip23"><path d="M-5,-40 L199,-40 L199,110 L-5,110 L-5,-40 z"/></clipPath></defs><g clip-path="url(#clip23)" fill="none" opacity="1" stroke="#000000" stroke-linecap="butt" stroke-linejoin="miter" stroke-miterlimit="2" stroke-opacity="1" stroke-width="1" transform="matrix(1,0,0,1,435,157)"><text fill="#000000" fill-opacity="1" font-family="Arial" font-size="9" font-style="normal" font-weight="400" stroke="none" textLength="25.4531" x="0" xml:space="preserve" y="3.5">uCMD</text></g><defs><clipPath id="clip24"><path d="M-5,-115 L199,-115 L199,35 L-5,35 L-5,-115 z"/></clipPath></defs><g clip-path="url(#clip24)" fill="none" opacity="1" stroke="#000000" stroke-linecap="butt" stroke-linejoin="miter" stroke-miterlimit="2" stroke-opacity="1" stroke-width="1" transform="matrix(1,0,0,1,435,232)"><text fill="#000000" fill-opacity="1" font-family="Arial" font-size="9" font-style="normal" font-weight="400" stroke="none" textLength="13.9844" x="0" xml:space="preserve" y="3.5">Ref</text></g><defs><clipPath id="clip25"><path d="M-199,-25 L5,-25 L5,125 L-199,125 L-199,-25 z"/></clipPath></defs><g clip-path="url(#clip25)" fill="none" opacity="1" stroke="#000000" stroke-linecap="butt" stroke-linejoin="miter" stroke-miterlimit="2" stroke-opacity="1" stroke-width="1" transform="matrix(1,0,0,1,629,142)"><text fill="#000000" fill-opacity="1" font-family="Arial" font-size="9" font-style="normal" font-weight="400" stroke="none" textLength="23.9844" x="-23.9844" xml:space="preserve" y="3.5">eta_N</text></g><defs><clipPath id="clip26"><path d="M-199,-75 L5,-75 L5,75 L-199,75 L-199,-75 z"/></clipPath></defs><g clip-path="url(#clip26)" fill="none" opacity="1" stroke="#000000" stroke-linecap="butt" stroke-linejoin="miter" stroke-miterlimit="2" stroke-opacity="1" stroke-width="1" transform="matrix(1,0,0,1,629,192)"><text fill="#000000" fill-opacity="1" font-family="Arial" font-size="9" font-style="normal" font-weight="400" stroke="none" textLength="21" x="-21" xml:space="preserve" y="3.5">nu_B</text></g><defs><clipPath id="clip27"><path d="M-199,-125 L5,-125 L5,25 L-199,25 L-199,-125 z"/></clipPath></defs><g clip-path="url(#clip27)" fill="none" opacity="1" stroke="#000000" stroke-linecap="butt" stroke-linejoin="miter" stroke-miterlimit="2" stroke-opacity="1" stroke-width="1" transform="matrix(1,0,0,1,629,242)"><text fill="#000000" fill-opacity="1" font-family="Arial" font-size="9" font-style="normal" font-weight="400" stroke="none" textLength="46.9375" x="-46.9375" xml:space="preserve" y="3.5">[uCMD Ref]</text></g><defs><clipPath id="clip32"><path d="M-432.5,-119.5 L515.5,-119.5 L515.5,364.5 L-432.5,364.5 L-432.5,-119.5 z"/></clipPath></defs><g clip-path="url(#clip32)" fill="none" opacity="1" stroke="#000000" stroke-linecap="butt" stroke-linejoin="miter" stroke-miterlimit="2" stroke-opacity="1" stroke-width="1" transform="matrix(1,0,0,1,432.5,119.5)"><path d="M0,0 L200,0 L200,146 L0,146 L0,0 z" fill-rule="evenodd" vector-effect="none"/></g><defs><clipPath id="clip38"><path d="M0,0 L181,0 L181,15 L0,15 L0,0 z"/></clipPath></defs><g clip-path="url(#clip38)" fill="none" opacity="1" stroke="#000000" stroke-linecap="square" stroke-linejoin="bevel" stroke-opacity="1" stroke-width="1" transform="matrix(1,0,0,1,441.688,267)"><text fill="#000000" fill-opacity="1" font-family="Arial" font-size="10" font-style="normal" font-weight="400" stroke="none" textLength="178.625" x="1" xml:space="preserve" y="11">Robotic-Fish Model &amp; PropulsionSystem</text></g><defs><clipPath id="clip46"><path d="M-692,-118 L256,-118 L256,366 L-692,366 L-692,-118 z"/></clipPath></defs><g clip-path="url(#clip46)" fill="#00ffd9" fill-opacity="1" opacity="1" stroke="none" stroke-opacity="0" transform="matrix(1,0,0,1,692,118)"><path d="M0,0 L190,0 L190,148 L0,148 L0,0 z" fill-rule="evenodd" vector-effect="none"/></g><defs><clipPath id="clip50"><path d="M-5,-26 L189,-26 L189,126 L-5,126 L-5,-26 z"/></clipPath></defs><g clip-path="url(#clip50)" fill="none" opacity="1" stroke="#000000" stroke-linecap="butt" stroke-linejoin="miter" stroke-miterlimit="2" stroke-opacity="1" stroke-width="1" transform="matrix(1,0,0,1,695,142)"><text fill="#000000" fill-opacity="1" font-family="Arial" font-size="9" font-style="normal" font-weight="400" stroke="none" textLength="23.9844" x="0" xml:space="preserve" y="3.5">eta_N</text></g><defs><clipPath id="clip51"><path d="M-5,-76 L189,-76 L189,76 L-5,76 L-5,-76 z"/></clipPath></defs><g clip-path="url(#clip51)" fill="none" opacity="1" stroke="#000000" stroke-linecap="butt" stroke-linejoin="miter" stroke-miterlimit="2" stroke-opacity="1" stroke-width="1" transform="matrix(1,0,0,1,695,192)"><text fill="#000000" fill-opacity="1" font-family="Arial" font-size="9" font-style="normal" font-weight="400" stroke="none" textLength="21" x="0" xml:space="preserve" y="3.5">nu_B</text></g><defs><clipPath id="clip52"><path d="M-5,-126 L189,-126 L189,26 L-5,26 L-5,-126 z"/></clipPath></defs><g clip-path="url(#clip52)" fill="none" opacity="1" stroke="#000000" stroke-linecap="butt" stroke-linejoin="miter" stroke-miterlimit="2" stroke-opacity="1" stroke-width="1" transform="matrix(1,0,0,1,695,242)"><text fill="#000000" fill-opacity="1" font-family="Arial" font-size="9" font-style="normal" font-weight="400" stroke="none" textLength="46.9375" x="0" xml:space="preserve" y="3.5">[uCMD Ref]</text></g><defs><clipPath id="clip53"><path d="M-189,-26 L5,-26 L5,126 L-189,126 L-189,-26 z"/></clipPath></defs><g clip-path="url(#clip53)" fill="none" opacity="1" stroke="#000000" stroke-linecap="butt" stroke-linejoin="miter" stroke-miterlimit="2" stroke-opacity="1" stroke-width="1" transform="matrix(1,0,0,1,879,142)"><text fill="#000000" fill-opacity="1" font-family="Arial" font-size="9" font-style="normal" font-weight="400" stroke="none" textLength="10.9688" x="-10.9688" xml:space="preserve" y="3.5">Rif</text></g><defs><clipPath id="clip54"><path d="M-189,-76 L5,-76 L5,76 L-189,76 L-189,-76 z"/></clipPath></defs><g clip-path="url(#clip54)" fill="none" opacity="1" stroke="#000000" stroke-linecap="butt" stroke-linejoin="miter" stroke-miterlimit="2" stroke-opacity="1" stroke-width="1" transform="matrix(1,0,0,1,879,192)"><text fill="#000000" fill-opacity="1" font-family="Arial" font-size="9" font-style="normal" font-weight="400" stroke="none" textLength="56.4375" x="-56.4375" xml:space="preserve" y="3.5">Actuator CMD</text></g><defs><clipPath id="clip55"><path d="M-189,-126 L5,-126 L5,26 L-189,26 L-189,-126 z"/></clipPath></defs><g clip-path="url(#clip55)" fill="none" opacity="1" stroke="#000000" stroke-linecap="butt" stroke-linejoin="miter" stroke-miterlimit="2" stroke-opacity="1" stroke-width="1" transform="matrix(1,0,0,1,879,242)"><text fill="#000000" fill-opacity="1" font-family="Arial" font-size="9" font-style="normal" font-weight="400" stroke="none" textLength="62.9688" x="-62.9688" xml:space="preserve" y="3.5">State Estimates</text></g><defs><clipPath id="clip60"><path d="M-692.5,-118.5 L255.5,-118.5 L255.5,365.5 L-692.5,365.5 L-692.5,-118.5 z"/></clipPath></defs><g clip-path="url(#clip60)" fill="none" opacity="1" stroke="#000000" stroke-linecap="butt" stroke-linejoin="miter" stroke-miterlimit="2" stroke-opacity="1" stroke-width="1" transform="matrix(1,0,0,1,692.5,118.5)"><path d="M0,0 L190,0 L190,148 L0,148 L0,0 z" fill-rule="evenodd" vector-effect="none"/></g><defs><clipPath id="clip66"><path d="M0,0 L30,0 L30,28 L0,28 L0,0 z"/></clipPath></defs><g clip-path="url(#clip66)" fill="none" opacity="1" stroke="#000000" stroke-linecap="square" stroke-linejoin="bevel" stroke-opacity="1" stroke-width="1" transform="matrix(1,0,0,1,772.125,268)"><text fill="#000000" fill-opacity="1" font-family="Arial" font-size="10" font-style="normal" font-weight="400" stroke="none" textLength="27.75" x="1" xml:space="preserve" y="11">VRML</text></g><defs><clipPath id="clip74"><path d="M-192,-116 L756,-116 L756,368 L-192,368 L-192,-116 z"/></clipPath></defs><g clip-path="url(#clip74)" fill="#00ffd9" fill-opacity="1" opacity="1" stroke="none" stroke-opacity="0" transform="matrix(1,0,0,1,192,116)"><path d="M0,0 L195,0 L195,152 L0,152 L0,0 z" fill-rule="evenodd" vector-effect="none"/></g><defs><clipPath id="clip78"><path d="M-5,-28 L194,-28 L194,128 L-5,128 L-5,-28 z"/></clipPath></defs><g clip-path="url(#clip78)" fill="none" opacity="1" stroke="#000000" stroke-linecap="butt" stroke-linejoin="miter" stroke-miterlimit="2" stroke-opacity="1" stroke-width="1" transform="matrix(1,0,0,1,195,142)"><text fill="#000000" fill-opacity="1" font-family="Arial" font-size="9" font-style="normal" font-weight="400" stroke="none" textLength="68.4531" x="0" xml:space="preserve" y="3.5">Actuators Choice</text></g><defs><clipPath id="clip79"><path d="M-5,-78 L194,-78 L194,78 L-5,78 L-5,-78 z"/></clipPath></defs><g clip-path="url(#clip79)" fill="none" opacity="1" stroke="#000000" stroke-linecap="butt" stroke-linejoin="miter" stroke-miterlimit="2" stroke-opacity="1" stroke-width="1" transform="matrix(1,0,0,1,195,192)"><text fill="#000000" fill-opacity="1" font-family="Arial" font-size="9" font-style="normal" font-weight="400" stroke="none" textLength="13.9844" x="0" xml:space="preserve" y="3.5">Ref</text></g><defs><clipPath id="clip80"><path d="M-5,-128 L194,-128 L194,28 L-5,28 L-5,-128 z"/></clipPath></defs><g clip-path="url(#clip80)" fill="none" opacity="1" stroke="#000000" stroke-linecap="butt" stroke-linejoin="miter" stroke-miterlimit="2" stroke-opacity="1" stroke-width="1" transform="matrix(1,0,0,1,195,242)"><text fill="#000000" fill-opacity="1" font-family="Arial" font-size="9" font-style="normal" font-weight="400" stroke="none" textLength="65.4688" x="0" xml:space="preserve" y="3.5">Estimate States </text></g><defs><clipPath id="clip81"><path d="M-194,-43 L5,-43 L5,113 L-194,113 L-194,-43 z"/></clipPath></defs><g clip-path="url(#clip81)" fill="none" opacity="1" stroke="#000000" stroke-linecap="butt" stroke-linejoin="miter" stroke-miterlimit="2" stroke-opacity="1" stroke-width="1" transform="matrix(1,0,0,1,384,157)"><text fill="#000000" fill-opacity="1" font-family="Arial" font-size="9" font-style="normal" font-weight="400" stroke="none" textLength="25.4531" x="-25.4531" xml:space="preserve" y="3.5">uCMD</text></g><defs><clipPath id="clip82"><path d="M-194,-118 L5,-118 L5,38 L-194,38 L-194,-118 z"/></clipPath></defs><g clip-path="url(#clip82)" fill="none" opacity="1" stroke="#000000" stroke-linecap="butt" stroke-linejoin="miter" stroke-miterlimit="2" stroke-opacity="1" stroke-width="1" transform="matrix(1,0,0,1,384,232)"><text fill="#000000" fill-opacity="1" font-family="Arial" font-size="9" font-style="normal" font-weight="400" stroke="none" textLength="10.9688" x="-10.9688" xml:space="preserve" y="3.5">Rif</text></g><defs><clipPath id="clip87"><path d="M-192.5,-116.5 L755.5,-116.5 L755.5,367.5 L-192.5,367.5 L-192.5,-116.5 z"/></clipPath></defs><g clip-path="url(#clip87)" fill="none" opacity="1" stroke="#000000" stroke-linecap="butt" stroke-linejoin="miter" stroke-miterlimit="2" stroke-opacity="1" stroke-width="1" transform="matrix(1,0,0,1,192.5,116.5)"><path d="M0,0 L195,0 L195,152 L0,152 L0,0 z" fill-rule="evenodd" vector-effect="none"/></g><defs><clipPath id="clip93"><path d="M0,0 L133,0 L133,15 L0,15 L0,0 z"/></clipPath></defs><g clip-path="url(#clip93)" fill="none" opacity="1" stroke="#000000" stroke-linecap="square" stroke-linejoin="bevel" stroke-opacity="1" stroke-width="1" transform="matrix(1,0,0,1,222.766,270)"><text fill="#000000" fill-opacity="1" font-family="Arial" font-size="10" font-style="normal" font-weight="400" stroke="none" textLength="131.469" x="1" xml:space="preserve" y="11">Guidance and Control system</text></g><defs><clipPath id="clip101"><path d="M-2,-118 L946,-118 L946,366 L-2,366 L-2,-118 z"/></clipPath></defs><g clip-path="url(#clip101)" fill="#00d100" fill-opacity="1" opacity="1" stroke="none" stroke-opacity="0" transform="matrix(1,0,0,1,2,118)"><path d="M0,0 L115,0 L115,98 L0,98 L0,0 z" fill-rule="evenodd" vector-effect="none"/></g><defs><clipPath id="clip105"><path d="M-114,-26 L5,-26 L5,76 L-114,76 L-114,-26 z"/></clipPath></defs><g clip-path="url(#clip105)" fill="none" opacity="1" stroke="#000000" stroke-linecap="butt" stroke-linejoin="miter" stroke-miterlimit="2" stroke-opacity="1" stroke-width="1" transform="matrix(1,0,0,1,114,142)"><text fill="#000000" fill-opacity="1" font-family="Arial" font-size="9" font-style="normal" font-weight="400" stroke="none" textLength="8.5" x="-8.5" xml:space="preserve" y="3.5"> P</text></g><defs><clipPath id="clip106"><path d="M-114,-76 L5,-76 L5,26 L-114,26 L-114,-76 z"/></clipPath></defs><g clip-path="url(#clip106)" fill="none" opacity="1" stroke="#000000" stroke-linecap="butt" stroke-linejoin="miter" stroke-miterlimit="2" stroke-opacity="1" stroke-width="1" transform="matrix(1,0,0,1,114,192)"><text fill="#000000" fill-opacity="1" font-family="Arial" font-size="9" font-style="normal" font-weight="400" stroke="none" textLength="13.9844" x="-13.9844" xml:space="preserve" y="3.5">Ref</text></g><defs><clipPath id="clip111"><path d="M-2.5,-118.5 L945.5,-118.5 L945.5,365.5 L-2.5,365.5 L-2.5,-118.5 z"/></clipPath></defs><g clip-path="url(#clip111)" fill="none" opacity="1" stroke="#000000" stroke-linecap="butt" stroke-linejoin="miter" stroke-miterlimit="2" stroke-opacity="1" stroke-width="1" transform="matrix(1,0,0,1,2.5,118.5)"><path d="M0,0 L115,0 L115,98 L0,98 L0,0 z" fill-rule="evenodd" vector-effect="none"/></g><defs><clipPath id="clip117"><path d="M0,0 L68,0 L68,15 L0,15 L0,0 z"/></clipPath></defs><g clip-path="url(#clip117)" fill="none" opacity="1" stroke="#000000" stroke-linecap="square" stroke-linejoin="bevel" stroke-opacity="1" stroke-width="1" transform="matrix(1,0,0,1,25.5078,218)"><text fill="#000000" fill-opacity="1" font-family="Arial" font-size="10" font-style="normal" font-weight="400" stroke="none" textLength="65.9844" x="1" xml:space="preserve" y="11">Target Position</text></g><defs><clipPath id="clip125"><path d="M-432,-329 L516,-329 L516,155 L-432,155 L-432,-329 z"/></clipPath></defs><g clip-path="url(#clip125)" fill="#e8d152" fill-opacity="1" opacity="1" stroke="none" stroke-opacity="0" transform="matrix(1,0,0,1,432,329)"><path d="M0,0 L200,0 L200,136 L0,136 L0,0 z" fill-rule="evenodd" vector-effect="none"/></g><defs><clipPath id="clip129"><path d="M-199,-25 L5,-25 L5,115 L-199,115 L-199,-25 z"/></clipPath></defs><g clip-path="url(#clip129)" fill="none" opacity="1" stroke="#000000" stroke-linecap="butt" stroke-linejoin="miter" stroke-miterlimit="2" stroke-opacity="1" stroke-width="1" transform="matrix(1,0,0,1,629,352)"><text fill="#000000" fill-opacity="1" font-family="Arial" font-size="9" font-style="normal" font-weight="400" stroke="none" textLength="17" x="-17" xml:space="preserve" y="3.5">S_E</text></g><defs><clipPath id="clip130"><path d="M-199,-70 L5,-70 L5,70 L-199,70 L-199,-70 z"/></clipPath></defs><g clip-path="url(#clip130)" fill="none" opacity="1" stroke="#000000" stroke-linecap="butt" stroke-linejoin="miter" stroke-miterlimit="2" stroke-opacity="1" stroke-width="1" transform="matrix(1,0,0,1,629,397)"><text fill="#000000" fill-opacity="1" font-family="Arial" font-size="9" font-style="normal" font-weight="400" stroke="none" textLength="56.4375" x="-56.4375" xml:space="preserve" y="3.5">Actuator CMD</text></g><defs><clipPath id="clip131"><path d="M-199,-115 L5,-115 L5,25 L-199,25 L-199,-115 z"/></clipPath></defs><g clip-path="url(#clip131)" fill="none" opacity="1" stroke="#000000" stroke-linecap="butt" stroke-linejoin="miter" stroke-miterlimit="2" stroke-opacity="1" stroke-width="1" transform="matrix(1,0,0,1,629,442)"><text fill="#000000" fill-opacity="1" font-family="Arial" font-size="9" font-style="normal" font-weight="400" stroke="none" textLength="13.9844" x="-13.9844" xml:space="preserve" y="3.5">Ref</text></g><defs><clipPath id="clip132"><path d="M-5,-70 L199,-70 L199,70 L-5,70 L-5,-70 z"/></clipPath></defs><g clip-path="url(#clip132)" fill="none" opacity="1" stroke="#000000" stroke-linecap="butt" stroke-linejoin="miter" stroke-miterlimit="2" stroke-opacity="1" stroke-width="1" transform="matrix(1,0,0,1,435,397)"><text fill="#000000" fill-opacity="1" font-family="Arial" font-size="9" font-style="normal" font-weight="400" stroke="none" textLength="62.9688" x="0" xml:space="preserve" y="3.5">Estimate States</text></g><defs><clipPath id="clip137"><path d="M-432.5,-329.5 L515.5,-329.5 L515.5,154.5 L-432.5,154.5 L-432.5,-329.5 z"/></clipPath></defs><g clip-path="url(#clip137)" fill="none" opacity="1" stroke="#000000" stroke-linecap="butt" stroke-linejoin="miter" stroke-miterlimit="2" stroke-opacity="1" stroke-width="1" transform="matrix(1,0,0,1,432.5,329.5)"><path d="M0,0 L200,0 L200,136 L0,136 L0,0 z" fill-rule="evenodd" vector-effect="none"/></g><defs><clipPath id="clip143"><path d="M0,0 L57,0 L57,15 L0,15 L0,0 z"/></clipPath></defs><g clip-path="url(#clip143)" fill="none" opacity="1" stroke="#000000" stroke-linecap="square" stroke-linejoin="bevel" stroke-opacity="1" stroke-width="1" transform="matrix(1,0,0,1,503.453,467)"><text fill="#000000" fill-opacity="1" font-family="Arial" font-size="10" font-style="normal" font-weight="400" stroke="none" textLength="55.0938" x="1" xml:space="preserve" y="11">ALL SCOPE</text></g><defs><clipPath id="clip151"><path d="M-692,-192 L256,-192 L256,292 L-692,292 L-692,-192 z"/></clipPath></defs><g clip-path="url(#clip151)" fill="#000000" fill-opacity="1" opacity="1" stroke="none" stroke-opacity="0" transform="matrix(1,0,0,1,692,192)"><path d="M0,0 L-8,-4 L-8,4 L0,0 z" fill-rule="nonzero" vector-effect="none"/></g><defs><clipPath id="clip154"><path d="M78,128 L1026,128 L1026,612 L78,612 L78,128 z"/></clipPath></defs><g clip-path="url(#clip154)" fill="none" opacity="1" stroke="#000000" stroke-linecap="butt" stroke-linejoin="miter" stroke-miterlimit="2" stroke-opacity="1" stroke-width="1" transform="matrix(1,0,0,1,-78,-128)"><path d="M710.5,320.5 L762.5,320.5" fill-rule="evenodd" vector-effect="none"/></g><defs><clipPath id="clip157"><path d="M-692,-142 L256,-142 L256,342 L-692,342 L-692,-142 z"/></clipPath></defs><g clip-path="url(#clip157)" fill="#000000" fill-opacity="1" opacity="1" stroke="none" stroke-opacity="0" transform="matrix(1,0,0,1,692,142)"><path d="M0,0 L-8,-4 L-8,4 L0,0 z" fill-rule="nonzero" vector-effect="none"/></g><defs><clipPath id="clip160"><path d="M78,128 L1026,128 L1026,612 L78,612 L78,128 z"/></clipPath></defs><g clip-path="url(#clip160)" fill="none" opacity="1" stroke="#000000" stroke-linecap="butt" stroke-linejoin="miter" stroke-miterlimit="2" stroke-opacity="1" stroke-width="1" transform="matrix(1,0,0,1,-78,-128)"><path d="M710.5,270.5 L762.5,270.5" fill-rule="evenodd" vector-effect="none"/></g><defs><clipPath id="clip163"><path d="M-192,-192 L756,-192 L756,292 L-192,292 L-192,-192 z"/></clipPath></defs><g clip-path="url(#clip163)" fill="#000000" fill-opacity="1" opacity="1" stroke="none" stroke-opacity="0" transform="matrix(1,0,0,1,192,192)"><path d="M0,0 L-8,-4 L-8,4 L0,0 z" fill-rule="nonzero" vector-effect="none"/></g><defs><clipPath id="clip166"><path d="M78,128 L1026,128 L1026,612 L78,612 L78,128 z"/></clipPath></defs><g clip-path="url(#clip166)" fill="none" opacity="1" stroke="#000000" stroke-linecap="butt" stroke-linejoin="miter" stroke-miterlimit="2" stroke-opacity="1" stroke-width="5" transform="matrix(1,0,0,1,-78,-128)"><path d="M195.5,320.5 L262.5,320.5" fill-rule="evenodd" vector-effect="none"/></g><defs><clipPath id="clip167"><path d="M78,128 L1026,128 L1026,612 L78,612 L78,128 z"/></clipPath></defs><g clip-path="url(#clip167)" fill="none" opacity="1" stroke="#ffffff" stroke-linecap="butt" stroke-linejoin="miter" stroke-miterlimit="2" stroke-opacity="1" stroke-width="3" transform="matrix(1,0,0,1,-78,-128)"><path d="M195.5,320.5 L262.5,320.5" fill-rule="evenodd" vector-effect="none"/></g><defs><clipPath id="clip168"><path d="M78,128 L1026,128 L1026,612 L78,612 L78,128 z"/></clipPath></defs><g clip-path="url(#clip168)" fill="none" opacity="1" stroke="#000000" stroke-linecap="butt" stroke-linejoin="miter" stroke-miterlimit="2" stroke-opacity="1" stroke-width="1" transform="matrix(1,0,0,1,-78,-128)"><path d="M195.5,320.5 L262.5,320.5" fill-rule="evenodd" vector-effect="none"/></g><defs><clipPath id="clip171"><path d="M-192,-242 L756,-242 L756,242 L-192,242 L-192,-242 z"/></clipPath></defs><g clip-path="url(#clip171)" fill="#000000" fill-opacity="1" opacity="1" stroke="none" stroke-opacity="0" transform="matrix(1,0,0,1,192,242)"><path d="M0,0 L-8,-4 L-8,4 L0,0 z" fill-rule="nonzero" vector-effect="none"/></g><defs><clipPath id="clip174"><path d="M78,128 L1026,128 L1026,612 L78,612 L78,128 z"/></clipPath></defs><g clip-path="url(#clip174)" fill="none" opacity="1" stroke="#000000" stroke-linecap="butt" stroke-linejoin="miter" stroke-miterlimit="2" stroke-opacity="1" stroke-width="5" transform="matrix(1,0,0,1,-78,-128)"><path d="M510.5,525.5 L255.5,525.5 L255.5,370.5 L262.5,370.5" fill-rule="evenodd" vector-effect="none"/></g><defs><clipPath id="clip175"><path d="M78,128 L1026,128 L1026,612 L78,612 L78,128 z"/></clipPath></defs><g clip-path="url(#clip175)" fill="none" opacity="1" stroke="#ffffff" stroke-linecap="butt" stroke-linejoin="miter" stroke-miterlimit="2" stroke-opacity="1" stroke-width="3" transform="matrix(1,0,0,1,-78,-128)"><path d="M510.5,525.5 L255.5,525.5 L255.5,370.5 L262.5,370.5" fill-rule="evenodd" vector-effect="none"/></g><defs><clipPath id="clip176"><path d="M78,128 L1026,128 L1026,612 L78,612 L78,128 z"/></clipPath></defs><g clip-path="url(#clip176)" fill="none" opacity="1" stroke="#000000" stroke-linecap="butt" stroke-linejoin="miter" stroke-miterlimit="2" stroke-opacity="1" stroke-width="1" transform="matrix(1,0,0,1,-78,-128)"><path d="M510.5,525.5 L255.5,525.5 L255.5,370.5 L262.5,370.5" fill-rule="evenodd" vector-effect="none"/></g><defs><clipPath id="clip179"><path d="M632,352 L-316,352 L-316,-132 L632,-132 L632,352 z"/></clipPath></defs><g clip-path="url(#clip179)" fill="#000000" fill-opacity="1" opacity="1" stroke="none" stroke-opacity="0" transform="matrix(-1,1.22465e-16,-1.22465e-16,-1,632,352)"><path d="M0,0 L-8,-4 L-8,4 L0,0 z" fill-rule="nonzero" vector-effect="none"/></g><defs><clipPath id="clip182"><path d="M78,128 L1026,128 L1026,612 L78,612 L78,128 z"/></clipPath></defs><g clip-path="url(#clip182)" fill="none" opacity="1" stroke="#000000" stroke-linecap="butt" stroke-linejoin="miter" stroke-miterlimit="2" stroke-opacity="1" stroke-width="5" transform="matrix(1,0,0,1,-78,-128)"><path d="M960.5,370.5 L985.5,370.5 L985.5,480.5 L718.5,480.5" fill-rule="evenodd" vector-effect="none"/></g><defs><clipPath id="clip183"><path d="M78,128 L1026,128 L1026,612 L78,612 L78,128 z"/></clipPath></defs><g clip-path="url(#clip183)" fill="none" opacity="1" stroke="#ffffff" stroke-linecap="butt" stroke-linejoin="miter" stroke-miterlimit="2" stroke-opacity="1" stroke-width="3" transform="matrix(1,0,0,1,-78,-128)"><path d="M960.5,370.5 L985.5,370.5 L985.5,480.5 L718.5,480.5" fill-rule="evenodd" vector-effect="none"/></g><defs><clipPath id="clip184"><path d="M78,128 L1026,128 L1026,612 L78,612 L78,128 z"/></clipPath></defs><g clip-path="url(#clip184)" fill="none" opacity="1" stroke="#000000" stroke-linecap="butt" stroke-linejoin="miter" stroke-miterlimit="2" stroke-opacity="1" stroke-width="1" transform="matrix(1,0,0,1,-78,-128)"><path d="M960.5,370.5 L985.5,370.5 L985.5,480.5 L718.5,480.5" fill-rule="evenodd" vector-effect="none"/></g><defs><clipPath id="clip187"><path d="M632,397 L-316,397 L-316,-87 L632,-87 L632,397 z"/></clipPath></defs><g clip-path="url(#clip187)" fill="#000000" fill-opacity="1" opacity="1" stroke="none" stroke-opacity="0" transform="matrix(-1,1.22465e-16,-1.22465e-16,-1,632,397)"><path d="M0,0 L-8,-4 L-8,4 L0,0 z" fill-rule="nonzero" vector-effect="none"/></g><defs><clipPath id="clip190"><path d="M78,128 L1026,128 L1026,612 L78,612 L78,128 z"/></clipPath></defs><g clip-path="url(#clip190)" fill="none" opacity="1" stroke="#000000" stroke-linecap="butt" stroke-linejoin="miter" stroke-miterlimit="2" stroke-opacity="1" stroke-width="5" transform="matrix(1,0,0,1,-78,-128)"><path d="M960.5,320.5 L1004.5,320.5 L1004.5,525.5 L718.5,525.5" fill-rule="evenodd" vector-effect="none"/></g><defs><clipPath id="clip191"><path d="M78,128 L1026,128 L1026,612 L78,612 L78,128 z"/></clipPath></defs><g clip-path="url(#clip191)" fill="none" opacity="1" stroke="#ffffff" stroke-linecap="butt" stroke-linejoin="miter" stroke-miterlimit="2" stroke-opacity="1" stroke-width="3" transform="matrix(1,0,0,1,-78,-128)"><path d="M960.5,320.5 L1004.5,320.5 L1004.5,525.5 L718.5,525.5" fill-rule="evenodd" vector-effect="none"/></g><defs><clipPath id="clip192"><path d="M78,128 L1026,128 L1026,612 L78,612 L78,128 z"/></clipPath></defs><g clip-path="url(#clip192)" fill="none" opacity="1" stroke="#000000" stroke-linecap="butt" stroke-linejoin="miter" stroke-miterlimit="2" stroke-opacity="1" stroke-width="1" transform="matrix(1,0,0,1,-78,-128)"><path d="M960.5,320.5 L1004.5,320.5 L1004.5,525.5 L718.5,525.5" fill-rule="evenodd" vector-effect="none"/></g><defs><clipPath id="clip195"><path d="M632,442 L-316,442 L-316,-42 L632,-42 L632,442 z"/></clipPath></defs><g clip-path="url(#clip195)" fill="#000000" fill-opacity="1" opacity="1" stroke="none" stroke-opacity="0" transform="matrix(-1,1.22465e-16,-1.22465e-16,-1,632,442)"><path d="M0,0 L-8,-4 L-8,4 L0,0 z" fill-rule="nonzero" vector-effect="none"/></g><defs><clipPath id="clip198"><path d="M78,128 L1026,128 L1026,612 L78,612 L78,128 z"/></clipPath></defs><g clip-path="url(#clip198)" fill="none" opacity="1" stroke="#000000" stroke-linecap="butt" stroke-linejoin="miter" stroke-miterlimit="2" stroke-opacity="1" stroke-width="5" transform="matrix(1,0,0,1,-78,-128)"><path d="M960.5,270.5 L1024.5,270.5 L1024.5,570.5 L718.5,570.5" fill-rule="evenodd" vector-effect="none"/></g><defs><clipPath id="clip199"><path d="M78,128 L1026,128 L1026,612 L78,612 L78,128 z"/></clipPath></defs><g clip-path="url(#clip199)" fill="none" opacity="1" stroke="#ffffff" stroke-linecap="butt" stroke-linejoin="miter" stroke-miterlimit="2" stroke-opacity="1" stroke-width="3" transform="matrix(1,0,0,1,-78,-128)"><path d="M960.5,270.5 L1024.5,270.5 L1024.5,570.5 L718.5,570.5" fill-rule="evenodd" vector-effect="none"/></g><defs><clipPath id="clip200"><path d="M78,128 L1026,128 L1026,612 L78,612 L78,128 z"/></clipPath></defs><g clip-path="url(#clip200)" fill="none" opacity="1" stroke="#000000" stroke-linecap="butt" stroke-linejoin="miter" stroke-miterlimit="2" stroke-opacity="1" stroke-width="1" transform="matrix(1,0,0,1,-78,-128)"><path d="M960.5,270.5 L1024.5,270.5 L1024.5,570.5 L718.5,570.5" fill-rule="evenodd" vector-effect="none"/></g><defs><clipPath id="clip203"><path d="M-692,-242 L256,-242 L256,242 L-692,242 L-692,-242 z"/></clipPath></defs><g clip-path="url(#clip203)" fill="#000000" fill-opacity="1" opacity="1" stroke="none" stroke-opacity="0" transform="matrix(1,0,0,1,692,242)"><path d="M0,0 L-8,-4 L-8,4 L0,0 z" fill-rule="nonzero" vector-effect="none"/></g><defs><clipPath id="clip206"><path d="M78,128 L1026,128 L1026,612 L78,612 L78,128 z"/></clipPath></defs><g clip-path="url(#clip206)" fill="none" opacity="1" stroke="#000000" stroke-linecap="butt" stroke-linejoin="miter" stroke-miterlimit="2" stroke-opacity="1" stroke-width="5" transform="matrix(1,0,0,1,-78,-128)"><path d="M710.5,370.5 L762.5,370.5" fill-rule="evenodd" vector-effect="none"/></g><defs><clipPath id="clip207"><path d="M78,128 L1026,128 L1026,612 L78,612 L78,128 z"/></clipPath></defs><g clip-path="url(#clip207)" fill="none" opacity="1" stroke="#ffffff" stroke-linecap="butt" stroke-linejoin="miter" stroke-miterlimit="2" stroke-opacity="1" stroke-width="3" transform="matrix(1,0,0,1,-78,-128)"><path d="M710.5,370.5 L762.5,370.5" fill-rule="evenodd" vector-effect="none"/></g><defs><clipPath id="clip208"><path d="M78,128 L1026,128 L1026,612 L78,612 L78,128 z"/></clipPath></defs><g clip-path="url(#clip208)" fill="none" opacity="1" stroke="#000000" stroke-linecap="butt" stroke-linejoin="miter" stroke-miterlimit="2" stroke-opacity="1" stroke-width="1" transform="matrix(1,0,0,1,-78,-128)"><path d="M710.5,370.5 L762.5,370.5" fill-rule="evenodd" vector-effect="none"/></g><defs><clipPath id="clip211"><path d="M-432,-157 L516,-157 L516,327 L-432,327 L-432,-157 z"/></clipPath></defs><g clip-path="url(#clip211)" fill="#000000" fill-opacity="1" opacity="1" stroke="none" stroke-opacity="0" transform="matrix(1,0,0,1,432,157)"><path d="M0,0 L-8,-4 L-8,4 L0,0 z" fill-rule="nonzero" vector-effect="none"/></g><defs><clipPath id="clip214"><path d="M78,128 L1026,128 L1026,612 L78,612 L78,128 z"/></clipPath></defs><g clip-path="url(#clip214)" fill="none" opacity="1" stroke="#000000" stroke-linecap="butt" stroke-linejoin="miter" stroke-miterlimit="2" stroke-opacity="1" stroke-width="5" transform="matrix(1,0,0,1,-78,-128)"><path d="M465.5,285.5 L502.5,285.5" fill-rule="evenodd" vector-effect="none"/></g><defs><clipPath id="clip215"><path d="M78,128 L1026,128 L1026,612 L78,612 L78,128 z"/></clipPath></defs><g clip-path="url(#clip215)" fill="none" opacity="1" stroke="#ffffff" stroke-linecap="butt" stroke-linejoin="miter" stroke-miterlimit="2" stroke-opacity="1" stroke-width="3" transform="matrix(1,0,0,1,-78,-128)"><path d="M465.5,285.5 L502.5,285.5" fill-rule="evenodd" vector-effect="none"/></g><defs><clipPath id="clip216"><path d="M78,128 L1026,128 L1026,612 L78,612 L78,128 z"/></clipPath></defs><g clip-path="url(#clip216)" fill="none" opacity="1" stroke="#000000" stroke-linecap="butt" stroke-linejoin="miter" stroke-miterlimit="2" stroke-opacity="1" stroke-width="1" transform="matrix(1,0,0,1,-78,-128)"><path d="M465.5,285.5 L502.5,285.5" fill-rule="evenodd" vector-effect="none"/></g><defs><clipPath id="clip219"><path d="M-432,-232 L516,-232 L516,252 L-432,252 L-432,-232 z"/></clipPath></defs><g clip-path="url(#clip219)" fill="#000000" fill-opacity="1" opacity="1" stroke="none" stroke-opacity="0" transform="matrix(1,0,0,1,432,232)"><path d="M0,0 L-8,-4 L-8,4 L0,0 z" fill-rule="nonzero" vector-effect="none"/></g><defs><clipPath id="clip222"><path d="M78,128 L1026,128 L1026,612 L78,612 L78,128 z"/></clipPath></defs><g clip-path="url(#clip222)" fill="none" opacity="1" stroke="#000000" stroke-linecap="butt" stroke-linejoin="miter" stroke-miterlimit="2" stroke-opacity="1" stroke-width="5" transform="matrix(1,0,0,1,-78,-128)"><path d="M465.5,360.5 L502.5,360.5" fill-rule="evenodd" vector-effect="none"/></g><defs><clipPath id="clip223"><path d="M78,128 L1026,128 L1026,612 L78,612 L78,128 z"/></clipPath></defs><g clip-path="url(#clip223)" fill="none" opacity="1" stroke="#ffffff" stroke-linecap="butt" stroke-linejoin="miter" stroke-miterlimit="2" stroke-opacity="1" stroke-width="3" transform="matrix(1,0,0,1,-78,-128)"><path d="M465.5,360.5 L502.5,360.5" fill-rule="evenodd" vector-effect="none"/></g><defs><clipPath id="clip224"><path d="M78,128 L1026,128 L1026,612 L78,612 L78,128 z"/></clipPath></defs><g clip-path="url(#clip224)" fill="none" opacity="1" stroke="#000000" stroke-linecap="butt" stroke-linejoin="miter" stroke-miterlimit="2" stroke-opacity="1" stroke-width="1" transform="matrix(1,0,0,1,-78,-128)"><path d="M465.5,360.5 L502.5,360.5" fill-rule="evenodd" vector-effect="none"/></g><defs><clipPath id="clip227"><path d="M-192,-142 L756,-142 L756,342 L-192,342 L-192,-142 z"/></clipPath></defs><g clip-path="url(#clip227)" fill="#000000" fill-opacity="1" opacity="1" stroke="none" stroke-opacity="0" transform="matrix(1,0,0,1,192,142)"><path d="M0,0 L-8,-4 L-8,4 L0,0 z" fill-rule="nonzero" vector-effect="none"/></g><defs><clipPath id="clip230"><path d="M78,128 L1026,128 L1026,612 L78,612 L78,128 z"/></clipPath></defs><g clip-path="url(#clip230)" fill="none" opacity="1" stroke="#000000" stroke-linecap="butt" stroke-linejoin="miter" stroke-miterlimit="2" stroke-opacity="1" stroke-width="5" transform="matrix(1,0,0,1,-78,-128)"><path d="M195.5,270.5 L262.5,270.5" fill-rule="evenodd" vector-effect="none"/></g><defs><clipPath id="clip231"><path d="M78,128 L1026,128 L1026,612 L78,612 L78,128 z"/></clipPath></defs><g clip-path="url(#clip231)" fill="none" opacity="1" stroke="#ffffff" stroke-linecap="butt" stroke-linejoin="miter" stroke-miterlimit="2" stroke-opacity="1" stroke-width="3" transform="matrix(1,0,0,1,-78,-128)"><path d="M195.5,270.5 L262.5,270.5" fill-rule="evenodd" vector-effect="none"/></g><defs><clipPath id="clip232"><path d="M78,128 L1026,128 L1026,612 L78,612 L78,128 z"/></clipPath></defs><g clip-path="url(#clip232)" fill="none" opacity="1" stroke="#000000" stroke-linecap="butt" stroke-linejoin="miter" stroke-miterlimit="2" stroke-opacity="1" stroke-width="1" transform="matrix(1,0,0,1,-78,-128)"><path d="M195.5,270.5 L262.5,270.5" fill-rule="evenodd" vector-effect="none"/></g></g><!--generated on windows @ 2023-11-29 16:18:44 ora solare Europa occidentale--></svg>
